<?xml version="1.0" encoding="UTF-8"?>
<svg version="1.1" xmlns="http://www.w3.org/2000/svg" width="640" height="640">
<path d="M0 0 C211.2 0 422.4 0 640 0 C640 211.2 640 422.4 640 640 C428.8 640 217.6 640 0 640 C0 428.8 0 217.6 0 0 Z " fill="#000000" transform="translate(0,0)"/>
<path d="M0 0 C28.05 0 56.1 0 85 0 C89.49961982 10.12414459 89.49961982 10.12414459 91.02026367 14.49243164 C91.36617554 15.4798938 91.7120874 16.46735596 92.06848145 17.48474121 C92.43131226 18.53262817 92.79414307 19.58051514 93.16796875 20.66015625 C93.55988403 21.78176147 93.95179932 22.9033667 94.35559082 24.05895996 C95.19746976 26.46949065 96.03765947 28.88061185 96.87631226 31.29226685 C98.20878546 35.12370492 99.54552207 38.95362752 100.8840332 42.78295898 C101.22197167 43.74981298 101.22197167 43.74981298 101.56673717 44.73619938 C102.02361414 46.04331026 102.48050778 47.35041531 102.93741798 48.65751457 C103.62697486 50.63065097 104.31606316 52.60395049 105.00505066 54.57728577 C109.19829736 66.58450909 113.43502449 78.57613709 117.6875 90.5625 C118.37720841 92.50732027 119.06690568 94.45214448 119.7565918 96.39697266 C120.78871144 99.30715622 121.82093351 102.21730328 122.85343933 105.12734985 C125.41279221 112.34130333 127.96704565 119.55705164 130.51953125 126.7734375 C131.65008672 129.96891294 132.78068491 133.16437326 133.9112854 136.35983276 C134.61769432 138.35676712 135.3239034 140.35377219 136.02987671 142.3508606 C141.29857937 157.25412069 146.64565979 172.12683275 152 187 C152.33 125.62 152.66 64.24 153 1 C181.05 1 209.1 1 238 1 C238 143.89 238 286.78 238 434 C225.72992701 434 225.72992701 434 219.6875 433.0625 C213.46718741 432.16026876 207.29726073 431.60438902 201.0234375 431.24609375 C198 431 198 431 195.88183594 430.51586914 C191.88710975 429.80078473 187.9171855 429.67097002 183.8671875 429.5 C182.07421875 429.41666667 180.28125 429.33333333 178.48828125 429.25 C175.67273734 429.1238794 172.85713263 428.99921178 170.04150391 428.875 C167.31655985 428.75349056 164.59188423 428.62691602 161.8671875 428.5 C161.02340546 428.46455078 160.17962341 428.42910156 159.31027222 428.39257812 C156.00195862 428.23764228 153.15859374 428.05286458 150 427 C148.97949219 424.98266602 148.97949219 424.98266602 148.046875 422.25390625 C147.68327881 421.21202148 147.31968262 420.17013672 146.94506836 419.09667969 C146.5506958 417.93040039 146.15632324 416.76412109 145.75 415.5625 C145.08733994 413.65513207 144.42462447 411.74778291 143.76036072 409.8409729 C143.27891471 408.4567134 142.79903653 407.07190781 142.3205719 405.68661499 C139.57064121 397.72512887 136.72112698 389.7997456 133.87713623 381.87149048 C125.92488508 359.68551041 118.0703636 337.46472858 110.20996094 315.24609375 C106.76319944 305.50365802 103.31370374 295.76219043 99.86395264 286.02081299 C98.78231442 282.96625622 97.70095241 279.91160178 96.61962891 276.85693359 C95.94955453 274.9645146 95.27947039 273.07209906 94.609375 271.1796875 C94.31733185 270.35448608 94.0252887 269.52928467 93.72439575 268.67907715 C91.16331749 261.44773363 88.58022816 254.22463884 86 247 C85.67 306.4 85.34 365.8 85 427 C70.15 427.99 55.3 428.98 40 430 C28.85018922 431.1610122 28.85018922 431.1610122 17.71484375 432.44921875 C11.8342903 433.01597065 5.90780133 433 0 433 C0 290.11 0 147.22 0 0 Z " fill="#E40813" transform="translate(201,103)"/>
<path d="M0 0 C28.05 0 56.1 0 85 0 C85 142.23 85 284.46 85 431 C83.36127136 428.54190704 82.46826989 426.82387436 81.51391602 424.11010742 C81.09443947 422.92708794 81.09443947 422.92708794 80.66648865 421.72016907 C80.36533646 420.85731796 80.06418427 419.99446686 79.75390625 419.10546875 C79.43144424 418.19222336 79.10898224 417.27897797 78.77674866 416.33805847 C77.70135441 413.28925772 76.63194495 410.23839222 75.5625 407.1875 C74.80098568 405.02477302 74.03909692 402.86217785 73.27685547 400.69970703 C71.25441513 394.95897174 69.23694763 389.21650053 67.22039795 383.47369385 C65.25557088 377.88108555 63.2858784 372.29019256 61.31640625 366.69921875 C56.13576316 351.98908416 50.96367951 337.27594338 45.79174805 322.56274414 C42.98677404 314.58328199 40.18130803 306.60399309 37.375 298.625 C36.98240997 297.50877258 36.58981995 296.39254517 36.18533325 295.24249268 C29.56171166 276.41293838 22.92899734 257.58636834 16.23328876 238.78229904 C15.5902804 236.96237285 14.95514658 235.13963094 14.33058071 233.31329346 C12.41655844 227.76712624 10.32242202 222.36311669 7.99613953 216.97616577 C-1.66237569 193.9650431 -2.57523653 172.8954396 -2.01479816 148.18607855 C-1.90961911 142.95231006 -1.8762997 137.71801748 -1.83441162 132.48342896 C-1.74513051 122.63076582 -1.59394715 112.78013085 -1.41884589 102.92865956 C-1.18521654 89.57444798 -1.05059878 76.21922917 -0.90956688 62.86377907 C-0.68573336 41.90750034 -0.33256244 20.95548957 0 0 Z " fill="#AE050E" transform="translate(354,104)"/>
<path d="M0 0 C2.35669727 2.35669727 2.89089903 4.10540609 3.97680664 7.24853516 C4.36291107 8.35665054 4.7490155 9.46476593 5.14682007 10.60646057 C5.56372101 11.82171921 5.98062195 13.03697784 6.41015625 14.2890625 C6.85318735 15.56671127 7.29677216 16.84416815 7.74087524 18.1214447 C8.69045746 20.85574553 9.63655308 23.59121781 10.57992554 26.32766724 C12.07247698 30.6566335 13.57300412 34.98280516 15.07543945 39.30834961 C15.32598556 40.02973083 15.57653166 40.75111204 15.83467007 41.49435329 C16.34158477 42.95384284 16.84852339 44.41332408 17.35548592 45.87279701 C18.11964204 48.07347503 18.88307351 50.2744033 19.64634705 52.47538757 C23.94123121 64.85634934 28.29904675 77.21439358 32.6875 89.5625 C34.05646116 93.41780145 35.42485044 97.27330563 36.79296875 101.12890625 C37.13250076 102.08563232 37.47203278 103.0423584 37.82185364 104.02807617 C42.07161341 116.01036281 46.28446489 128.00564046 50.5 140 C55.20795155 153.39538722 59.91986126 166.78927506 64.6640625 180.171875 C65.04218079 181.23853394 65.42029907 182.30519287 65.80987549 183.4041748 C68.92532536 192.19090316 68.92532536 192.19090316 72.05030537 200.97424507 C72.69358807 202.79379526 73.32920927 204.6160894 73.95394421 206.44209099 C75.57366964 211.14828718 77.291774 215.73678373 79.32929993 220.27883911 C87.78550549 240.09416104 87.11104385 259.40794322 86.71061635 280.5892663 C86.62498066 285.64839138 86.59273822 290.70788351 86.55430603 295.76754761 C86.47401706 305.30487368 86.34722309 314.84096297 86.20278877 324.37750995 C86.04040954 335.25301822 85.93128851 346.12886982 85.82615483 357.00505853 C85.60911152 379.33756843 85.32676471 401.66884315 85 424 C83.72093277 424.08204178 82.44186554 424.16408356 81.1240387 424.24861145 C76.30123289 424.55882636 71.47871478 424.87333992 66.65626526 425.18904114 C64.58352443 425.32415511 62.51071092 425.45815953 60.43782043 425.59095764 C47.16389941 426.44224852 33.95182908 427.4441912 20.74890137 429.08337402 C13.67037725 429.93689793 7.25558632 430 0 430 C0 288.1 0 146.2 0 0 Z " fill="#AC050E" transform="translate(201,106)"/>
</svg>
